<?xml version="1.0" encoding="utf-8"?>
<!-- Generator: Adobe Illustrator 16.0.0, SVG Export Plug-In . SVG Version: 6.00 Build 0)  -->
<!DOCTYPE svg PUBLIC "-//W3C//DTD SVG 1.1//EN" "http://www.w3.org/Graphics/SVG/1.1/DTD/svg11.dtd">
<svg version="1.1" id="Шар_1" xmlns="http://www.w3.org/2000/svg" xmlns:xlink="http://www.w3.org/1999/xlink" x="0px" y="0px"
	 width="77px" height="65.693px" viewBox="0 0 77 65.693" enable-background="new 0 0 77 65.693" xml:space="preserve">
<g>
	<path style="fill:#aa8234;" d="M73.508,58.707h-1.893v-1.893c0-1.926-1.568-3.492-3.493-3.492H54.658c-1.928,0-3.493,1.566-3.493,3.492v1.893h-1.895
		c-1.925,0-3.492,1.567-3.492,3.494v2.692c0,0.44,0.359,0.8,0.8,0.8H76.2c0.44,0,0.8-0.359,0.8-0.8v-2.692
		C77,60.274,75.433,58.707,73.508,58.707z M52.766,56.814c0-1.043,0.849-1.893,1.893-1.893h13.464c1.043,0,1.893,0.85,1.893,1.893
		v1.893H52.766V56.814z M75.4,64.094H47.378v-1.893c0-1.045,0.849-1.894,1.893-1.894h24.237c1.043,0,1.893,0.849,1.893,1.894V64.094
		z"/>
	<path style="fill:#aa8234;" d="M53.049,36.395l7.615-7.616c0.66-0.66,1.023-1.537,1.023-2.47c0-0.933-0.363-1.81-1.023-2.47
		c-1.318-1.319-3.619-1.319-4.939,0l-0.327,0.327l-0.386-0.268l-3.12-3.121l0.074-0.261c0.215-0.752,0.007-1.562-0.542-2.111
		l-8.176-8.174c-0.546-0.546-1.367-0.758-2.111-0.543l-0.262,0.075L37.43,6.317l0.324-0.327c0.72-0.721,1.084-1.599,1.084-2.531
		c0-0.933-0.364-1.81-1.023-2.47c-1.319-1.319-3.621-1.318-4.939,0l-7.617,7.616c-0.659,0.661-1.022,1.538-1.022,2.471
		c0,0.933,0.363,1.81,1.022,2.469c1.317,1.317,3.623,1.317,4.94,0l0.327-0.327l0.386,0.267l3.119,3.119l-0.074,0.262
		c-0.056,0.197-0.084,0.397-0.084,0.595c0,0.574,0.224,1.113,0.629,1.518l0.665,0.664l-2.944,2.945
		c-0.706,0.706-1.073,1.687-1.01,2.692l0.013,0.209L1.022,55.691C0.362,56.352,0,57.229,0,58.161c0,0.934,0.362,1.81,1.022,2.47
		c1.318,1.319,3.622,1.319,4.939,0l30.203-30.202l0.208,0.014c0.096,0.006,0.159,0.011,0.223,0.011c0.934,0,1.811-0.363,2.47-1.021
		l2.944-2.944l0.665,0.666c0.546,0.545,1.347,0.761,2.112,0.544l0.262-0.075l3.445,3.446l-0.326,0.327
		c-1.422,1.422-1.422,3.638-0.061,4.999C49.428,37.715,51.727,37.715,53.049,36.395z M56.857,24.97c0.709-0.713,1.961-0.715,2.676,0
		c0.358,0.358,0.555,0.833,0.555,1.338s-0.196,0.981-0.555,1.339l-7.617,7.616c-0.357,0.357-0.832,0.555-1.338,0.555
		s-0.982-0.197-1.338-0.555c-0.738-0.738-0.738-1.939,0-2.677L56.857,24.97z M29.066,12.414c-0.357,0.357-0.832,0.554-1.338,0.554
		c-0.507,0-0.981-0.197-1.338-0.554c-0.738-0.738-0.738-1.939,0-2.677l7.615-7.616c0.717-0.716,1.965-0.714,2.678,0
		c0.737,0.738,0.737,1.938,0,2.677L29.066,12.414z M35.065,15.377l-3.35-3.35l4.582-4.582l3.35,3.351L35.065,15.377z M34.188,30.143
		L4.83,59.5C4.475,59.856,4,60.054,3.492,60.054c-0.507,0-0.982-0.197-1.338-0.555C1.797,59.143,1.6,58.667,1.6,58.161
		s0.197-0.981,0.555-1.339L31.85,27.127l0.364,0.392l2.238,2.24L34.188,30.143z M37.934,28.3c-0.355,0.357-0.832,0.554-1.338,0.554
		s-0.98-0.197-1.338-0.554l-1.904-1.904c-0.738-0.737-0.738-1.938,0-2.676l2.944-2.944l4.58,4.582L37.934,28.3z M44.443,26.158
		l-0.251,0.024c-0.096,0-0.235-0.024-0.365-0.14l-8.331-8.33l-0.023-0.251c0-0.14,0.052-0.273,0.147-0.375l5.859-5.859l0.442-0.024
		l0.195,0.16l8.174,8.174c0.214,0.217,0.212,0.564-0.002,0.775L44.443,26.158z M46.275,26.587l4.581-4.581l3.352,3.35l-4.581,4.582
		L46.275,26.587z"/>
</g>
</svg>
