<?xml version="1.0" encoding="utf-8"?>
<!-- Generator: Adobe Illustrator 16.0.0, SVG Export Plug-In . SVG Version: 6.00 Build 0)  -->
<!DOCTYPE svg PUBLIC "-//W3C//DTD SVG 1.1//EN" "http://www.w3.org/Graphics/SVG/1.1/DTD/svg11.dtd">
<svg version="1.1" id="Шар_1" xmlns="http://www.w3.org/2000/svg" xmlns:xlink="http://www.w3.org/1999/xlink" x="0px" y="0px"
	 width="65px" height="62.729px" viewBox="0 0 65 62.729" enable-background="new 0 0 65 62.729" xml:space="preserve">
<g>
	<path style="fill:#aa8234;" d="M65,57.479c0-1.644-1.337-2.98-2.98-2.98H58.08L53.673,28.06c-1.064-6.391-6.54-11.029-13.019-11.029H24.347
		c-6.479,0-11.954,4.638-13.02,11.029L6.922,54.498H2.979C1.337,54.498,0,55.835,0,57.479v2.271c0,1.643,1.337,2.979,2.979,2.979
		h59.04c1.644,0,2.98-1.337,2.98-2.979V57.479z M12.728,28.293c0.95-5.704,5.837-9.843,11.619-9.843h16.308
		c5.781,0,10.668,4.14,11.619,9.843l4.367,26.205H33.21V43.396l0.298-0.048c3.067-0.488,5.38-3.199,5.38-6.307
		c0-3.521-2.865-6.386-6.388-6.386c-3.521,0-6.387,2.865-6.387,6.386c0,3.107,2.312,5.818,5.378,6.307l0.299,0.048v11.103H8.36
		L12.728,28.293z M32.5,42.009c-2.738,0-4.967-2.228-4.967-4.968c0-2.738,2.229-4.967,4.967-4.967c2.739,0,4.967,2.229,4.967,4.967
		C37.467,39.781,35.239,42.009,32.5,42.009z M63.581,59.75c0,0.86-0.7,1.561-1.562,1.561H2.979c-0.86,0-1.561-0.7-1.561-1.561
		v-2.271c0-0.861,0.7-1.561,1.561-1.561h59.04c0.861,0,1.562,0.699,1.562,1.561V59.75z"/>
	<path style="fill:#aa8234;" d="M6.387,36.332H0.709C0.318,36.332,0,36.65,0,37.041c0,0.392,0.318,0.71,0.709,0.71h5.678c0.392,0,0.709-0.318,0.709-0.71
		C7.096,36.65,6.778,36.332,6.387,36.332z"/>
	<path style="fill:#aa8234;" d="M64.29,36.332h-5.676c-0.392,0-0.709,0.318-0.709,0.709c0,0.392,0.317,0.71,0.709,0.71h5.676c0.392,0,0.71-0.318,0.71-0.71
		C65,36.65,64.682,36.332,64.29,36.332z"/>
	<path style="fill:#aa8234;" d="M32.5,0c-0.392,0-0.71,0.318-0.71,0.709v12.49c0,0.391,0.318,0.709,0.71,0.709s0.71-0.318,0.71-0.709V0.709
		C33.21,0.318,32.892,0,32.5,0z"/>
	<path style="fill:#aa8234;" d="M9.159,12.697c-0.134-0.134-0.312-0.208-0.502-0.208s-0.367,0.073-0.501,0.208c-0.135,0.134-0.209,0.312-0.209,0.502
		c0,0.189,0.074,0.367,0.209,0.501l4.541,4.542c0.269,0.269,0.733,0.268,1.004,0c0.133-0.134,0.207-0.312,0.207-0.501
		c0-0.19-0.073-0.368-0.208-0.501L9.159,12.697z"/>
	<path style="fill:#aa8234;" d="M57.053,13.198c0-0.189-0.074-0.367-0.208-0.501c-0.134-0.135-0.312-0.208-0.502-0.208s-0.368,0.074-0.502,0.208
		L51.3,17.239c-0.276,0.276-0.276,0.727,0,1.003c0.27,0.269,0.737,0.268,1.003,0l4.542-4.542
		C56.979,13.566,57.053,13.388,57.053,13.198z"/>
	<path style="fill:#aa8234;" d="M59.772,25.035c-0.093,0-0.185,0.019-0.271,0.055l-2.741,1.135c-0.362,0.15-0.534,0.566-0.385,0.928
		c0.146,0.351,0.574,0.53,0.927,0.384l2.742-1.136c0.175-0.073,0.312-0.209,0.384-0.384s0.072-0.368,0-0.543
		C60.318,25.207,60.061,25.035,59.772,25.035z"/>
	<path style="fill:#aa8234;" d="M20.933,9.113c-0.176,0.073-0.312,0.209-0.385,0.384c-0.072,0.175-0.072,0.368,0,0.543l1.537,3.71
		c0.146,0.352,0.566,0.534,0.927,0.384c0.176-0.073,0.312-0.209,0.385-0.384s0.072-0.367-0.001-0.542l-1.536-3.711
		c-0.11-0.267-0.368-0.438-0.656-0.438C21.11,9.059,21.02,9.077,20.933,9.113z"/>
	<path style="fill:#aa8234;" d="M44.068,9.113c-0.087-0.036-0.178-0.054-0.271-0.054c-0.288,0-0.546,0.172-0.657,0.438l-1.536,3.71
		c-0.15,0.361,0.022,0.777,0.385,0.927c0.36,0.15,0.78-0.032,0.927-0.384l1.537-3.71C44.602,9.679,44.43,9.263,44.068,9.113z"/>
	<path style="fill:#aa8234;" d="M4.946,26.423l2.688,1.113c0.358,0.148,0.782-0.032,0.928-0.384c0.072-0.175,0.072-0.368,0-0.543
		c-0.073-0.175-0.209-0.312-0.384-0.384l-2.688-1.113c-0.086-0.036-0.178-0.054-0.271-0.054c-0.288,0-0.546,0.172-0.656,0.438
		C4.413,25.857,4.585,26.273,4.946,26.423z"/>
</g>
</svg>
