<?xml version="1.0" encoding="utf-8"?>
<!-- Generator: Adobe Illustrator 16.0.0, SVG Export Plug-In . SVG Version: 6.00 Build 0)  -->
<!DOCTYPE svg PUBLIC "-//W3C//DTD SVG 1.1//EN" "http://www.w3.org/Graphics/SVG/1.1/DTD/svg11.dtd">
<svg version="1.1" id="Шар_1" xmlns="http://www.w3.org/2000/svg" xmlns:xlink="http://www.w3.org/1999/xlink" x="0px" y="0px"
	 width="55px" height="72.846px" viewBox="0 0 55 72.846" enable-background="new 0 0 55 72.846" xml:space="preserve">
<g>
	<path style="fill:#aa8234;" d="M51.719,2.549H19.311V2.087c0-1.17-0.882-2.087-2.008-2.087H9.655C8.549,0,7.647,0.9,7.647,2.007v0.488L7.185,2.549H3.281
		C1.472,2.549,0,4.021,0,5.831v63.733c0,1.811,1.472,3.282,3.281,3.282h48.438c1.81,0,3.281-1.472,3.281-3.282V5.831
		C55,4.021,53.528,2.549,51.719,2.549z M51.719,71.38H3.281c-1.001,0-1.816-0.814-1.816-1.816V5.831
		c0-1.001,0.815-1.816,1.816-1.816h4.366v14.563c0,0.256,0.13,0.489,0.347,0.623c0.213,0.132,0.496,0.143,0.714,0.032l4.771-2.385
		l4.771,2.385c0.22,0.11,0.501,0.099,0.715-0.033c0.214-0.132,0.346-0.371,0.346-0.623V4.015h32.408
		c1.001,0,1.816,0.815,1.816,1.816v63.733C53.535,70.566,52.72,71.38,51.719,71.38z M17.845,17.393l-4.04-2.02
		c-0.206-0.103-0.445-0.103-0.655,0.001l-4.036,2.019V2.007c0-0.299,0.243-0.542,0.542-0.542h7.647c0.299,0,0.542,0.243,0.542,0.542
		V17.393z"/>
	<path style="fill:#aa8234;" d="M44.71,44.962l-0.006,0.002l-4.999-11.246v-1.661h1.815c0.405,0,0.733-0.329,0.733-0.732c0-0.404-0.328-0.733-0.733-0.733
		H28.232v-2.425l0.314-0.106c1.337-0.452,2.235-1.702,2.235-3.11c0-1.81-1.473-3.282-3.282-3.282s-3.281,1.473-3.281,3.282
		c0,1.409,0.898,2.659,2.234,3.11l0.314,0.106v2.425H13.479c-0.404,0-0.731,0.329-0.731,0.733c0,0.404,0.327,0.732,0.731,0.732
		h1.817v1.661L10.208,45.15l-0.09,0.248l0.08,0.023c0.052,2.478,2.646,4.48,5.829,4.48c3.174,0,5.79-2.016,5.83-4.516l-0.018-0.248
		l-0.061-0.061l-5.019-11.359v-1.661h10.007v11.348l-0.314,0.106c-1.336,0.451-2.234,1.701-2.234,3.109v9.465h-3.092
		c-0.404,0-0.733,0.328-0.733,0.732s0.329,0.732,0.733,0.732h12.747c0.403,0,0.732-0.328,0.732-0.732s-0.329-0.732-0.732-0.732
		h-3.092v-9.465c0-1.408-0.898-2.658-2.235-3.109l-0.314-0.106V32.057h10.007v1.661l-5.011,11.289l-0.551,0.014l-0.031,0.459
		l0.499,0.078c0.144,2.412,2.71,4.344,5.826,4.344c3.216,0,5.832-2.043,5.83-4.584l-0.021-0.146L44.71,44.962z M42.798,46.825
		c-0.775,0.995-2.242,1.612-3.826,1.612s-3.051-0.618-3.825-1.613l-0.582-0.746h8.815L42.798,46.825z M19.854,46.824
		c-0.774,0.995-2.241,1.613-3.826,1.613c-1.584,0-3.051-0.618-3.825-1.613l-0.582-0.746h8.815L19.854,46.824z M12.056,44.613
		l3.972-8.935l3.972,8.935H12.056z M38.972,35.678l3.972,8.935H35L38.972,35.678z M27.5,23.134c1.002,0,1.816,0.815,1.816,1.817
		s-0.814,1.817-1.816,1.817s-1.817-0.815-1.817-1.817S26.498,23.134,27.5,23.134z M27.5,44.804c1.002,0,1.816,0.814,1.816,1.816
		v9.465h-3.634v-9.465C25.683,45.619,26.498,44.804,27.5,44.804z"/>
</g>
</svg>
