<?xml version="1.0" encoding="utf-8"?>
<!-- Generator: Adobe Illustrator 16.0.0, SVG Export Plug-In . SVG Version: 6.00 Build 0)  -->
<!DOCTYPE svg PUBLIC "-//W3C//DTD SVG 1.1//EN" "http://www.w3.org/Graphics/SVG/1.1/DTD/svg11.dtd">
<svg version="1.1" id="Шар_1" xmlns="http://www.w3.org/2000/svg" xmlns:xlink="http://www.w3.org/1999/xlink" x="0px" y="0px"
	 width="55px" height="72.868px" viewBox="0 0 55 72.868" enable-background="new 0 0 55 72.868" xml:space="preserve">
<g>
	<path style="fill:#aa8234;" d="M51.749,2.553H19.266V1.975C19.266,0.886,18.379,0,17.29,0H9.633C8.544,0,7.658,0.886,7.658,1.975v0.578H3.251
		C1.459,2.553,0,4.011,0,5.804v63.812c0,1.793,1.459,3.252,3.251,3.252h48.498c1.792,0,3.251-1.459,3.251-3.252V5.804
		C55,4.011,53.541,2.553,51.749,2.553z M17.868,17.436l-4.094-2.047c-0.192-0.096-0.435-0.096-0.625,0l-4.094,2.047V1.975
		c0-0.318,0.259-0.578,0.577-0.578h7.657c0.319,0,0.578,0.259,0.578,0.578V17.436z M1.397,5.804c0-1.022,0.832-1.854,1.854-1.854
		h4.407v14.616c0,0.244,0.123,0.466,0.331,0.594c0.197,0.123,0.47,0.136,0.68,0.031l4.793-2.396l4.793,2.396
		c0.208,0.105,0.479,0.092,0.679-0.03c0.208-0.128,0.332-0.351,0.332-0.595V3.95h32.483c1.022,0,1.854,0.832,1.854,1.854v63.812
		c0,1.023-0.832,1.854-1.854,1.854H3.251c-1.021,0-1.854-0.831-1.854-1.854V5.804z"/>
	<path style="fill:#aa8234;" d="M26.224,58.829h8.935c3.2,0,5.803-2.604,5.803-5.804V30.189c0-1.655-1.165-3.093-2.71-3.344
		c-0.578-0.095-1.173-0.034-1.717,0.176l-0.678,0.262V26.36c0-1.655-1.165-3.092-2.71-3.344c-0.622-0.101-1.26-0.023-1.834,0.224
		l-0.529,0.229l-0.148-0.558c-0.342-1.286-1.359-2.247-2.593-2.448c-0.173-0.028-0.351-0.042-0.526-0.042
		c-0.782,0-1.535,0.274-2.12,0.772c-0.729,0.62-1.146,1.522-1.146,2.478v1.061l-0.677-0.262c-0.542-0.209-1.138-0.271-1.718-0.176
		c-1.545,0.251-2.71,1.688-2.71,3.344v7.305l-0.678-0.262c-0.543-0.21-1.137-0.271-1.718-0.176c-1.545,0.251-2.71,1.688-2.71,3.343
		v8.797C14.039,53.363,19.505,58.829,26.224,58.829z M19.843,44.79c0.385,0,0.698-0.312,0.698-0.698V27.637
		c0-0.978,0.662-1.822,1.537-1.965c0.562-0.089,1.1,0.059,1.518,0.416c0.416,0.353,0.653,0.868,0.653,1.412v10.21
		c0,0.385,0.313,0.699,0.699,0.699c0.385,0,0.698-0.314,0.698-0.699V23.671c0-0.545,0.239-1.061,0.654-1.413
		c0.418-0.356,0.962-0.506,1.516-0.415c0.877,0.143,1.538,0.987,1.538,1.964V37.71c0,0.385,0.313,0.699,0.698,0.699
		c0.386,0,0.698-0.314,0.698-0.699V26.224c0-0.545,0.238-1.06,0.653-1.413c0.419-0.356,0.963-0.505,1.517-0.415
		c0.877,0.143,1.538,0.987,1.538,1.964v12.626c0,0.385,0.313,0.697,0.699,0.697c0.385,0,0.698-0.312,0.698-0.697v-8.935
		c0-0.544,0.238-1.06,0.653-1.413c0.419-0.355,0.963-0.504,1.517-0.415c0.877,0.143,1.538,0.987,1.538,1.964v22.836
		c0,2.43-1.978,4.407-4.406,4.407h-8.935c-5.948,0-10.787-4.84-10.787-10.789v-8.797c0-0.977,0.661-1.822,1.536-1.964
		c0.108-0.018,0.217-0.026,0.322-0.026c0.442,0,0.856,0.152,1.195,0.441c0.415,0.353,0.654,0.868,0.654,1.413v6.382
		C19.145,44.478,19.458,44.79,19.843,44.79z"/>
</g>
</svg>
