<?xml version="1.0" encoding="utf-8"?>
<!-- Generator: Adobe Illustrator 16.0.0, SVG Export Plug-In . SVG Version: 6.00 Build 0)  -->
<!DOCTYPE svg PUBLIC "-//W3C//DTD SVG 1.1//EN" "http://www.w3.org/Graphics/SVG/1.1/DTD/svg11.dtd">
<svg version="1.1" id="Шар_1" xmlns="http://www.w3.org/2000/svg" xmlns:xlink="http://www.w3.org/1999/xlink" x="0px" y="0px"
	 width="37.001px" height="73.819px" viewBox="0 0 37.001 73.819" enable-background="new 0 0 37.001 73.819" xml:space="preserve">
<path style="fill:#aa8234;" d="M35.555,0.114C35.368,0.037,35.185,0,34.992,0c-1.079,0-2.548,1.222-4.763,3.963c-1.77,2.19-3.989,5.338-6.598,9.356
	c-4.389,6.764-8.374,13.676-8.541,13.967c-0.132,0.23-0.139,0.508-0.015,0.743l4.517,8.605l-2.47,5.961H10.41
	c-1.849,0-3.353,1.504-3.353,3.352c0,1.439,0.917,2.715,2.283,3.176l0.298,0.102v0.594c0,0.998-0.812,1.811-1.81,1.811H5.934
	c-1.701,0-3.322,0.73-4.448,2.007c-1.126,1.274-1.65,2.975-1.439,4.663L1.79,72.25l-0.465,0.03c-0.404,0.026-0.72,0.363-0.72,0.768
	c0,0.426,0.346,0.771,0.771,0.771h28.39c0.427,0,0.771-0.346,0.771-0.771c0-0.404-0.315-0.741-0.72-0.768l-0.464-0.03l1.743-13.951
	c0.211-1.688-0.313-3.389-1.439-4.663c-1.126-1.276-2.747-2.007-4.448-2.007h-1.896c-0.997,0-1.81-0.812-1.81-1.811v-0.594
	l0.299-0.102c1.365-0.461,2.282-1.736,2.282-3.176c0-1.848-1.504-3.352-3.353-3.352h-1.94l3.093-7.467l6.609-3.01
	c0.183-0.083,0.324-0.232,0.398-0.419c0.027-0.071,2.891-7.366,5.162-14.686c1.35-4.346,2.244-7.893,2.661-10.541
	C37.12,3.904,37.353,0.859,35.555,0.114z M23.314,53.17h1.896c1.26,0,2.46,0.542,3.292,1.485c0.833,0.943,1.223,2.201,1.065,3.451
	l-1.771,14.17H3.348l-1.771-14.17c-0.156-1.25,0.231-2.508,1.064-3.451c0.834-0.943,2.034-1.485,3.292-1.485h1.896
	c1.848,0,3.353-1.503,3.353-3.353V49.38l0.438-0.081h8.343v0.438C19.963,51.667,21.467,53.17,23.314,53.17z M20.733,44.137
	c0.998,0,1.811,0.812,1.811,1.81s-0.812,1.811-1.811,1.811H10.41c-0.998,0-1.81-0.812-1.81-1.811s0.812-1.81,1.81-1.81H20.733z
	 M32.366,17.25c-1.89,5.992-4.099,11.792-4.731,13.427l-0.063,0.167l-4.82,2.195l8.281-19.995c0.163-0.393-0.024-0.845-0.417-1.008
	c-0.386-0.16-0.849,0.035-1.008,0.417L20.36,34.779l-3.721-7.09l0.122-0.209c0.903-1.552,4.124-7.04,7.625-12.484
	C31.03,4.663,33.655,2.226,34.627,1.692l0.434-0.237l0.186,0.458C35.575,2.732,35.955,5.865,32.366,17.25z"/>
</svg>
