<?xml version="1.0" encoding="utf-8"?>
<!-- Generator: Adobe Illustrator 16.0.0, SVG Export Plug-In . SVG Version: 6.00 Build 0)  -->
<!DOCTYPE svg PUBLIC "-//W3C//DTD SVG 1.1//EN" "http://www.w3.org/Graphics/SVG/1.1/DTD/svg11.dtd">
<svg version="1.1" id="Шар_1" xmlns="http://www.w3.org/2000/svg" xmlns:xlink="http://www.w3.org/1999/xlink" x="0px" y="0px"
	 width="426px" height="99.252px" viewBox="0 0 426 99.252" enable-background="new 0 0 426 99.252" xml:space="preserve">
<g>
	<path fill="#272727" d="M52.516,24.331l4.119,3.789l17.868-17.574l-3.915-3.905l-1.691,1.062c-2.189,1.374-3.752,1.511-5.667,0.093
		c-7.171-5.193-14.948-7.717-23.772-7.717c-14.723,0-29.578,7.945-29.578,25.695c0,17.861,15.961,24.307,26.528,28.573l0.934,0.375
		c12.416,4.984,19.44,8.208,19.44,16.537c0,9.17-7.821,12.437-15.143,12.437c-6.693,0-13.887-2.661-20.223-7.471
		c-1.057-0.827-1.807-1.943-0.151-4.479l1.159-1.78l-4.102-3.773L0,84.517l4.058,3.731l1.631-1.05
		c2.13-1.369,3.614-1.502,5.436-0.026c6.13,4.864,16.214,10.664,29.446,10.671c15.407,0,31.991-8.539,31.991-27.285
		c0-18.039-15.722-24.564-27.203-29.328l-0.789-0.326c-11.686-4.837-18.848-8.199-18.848-16.008c0-7.617,6.75-11.026,13.438-11.026
		c5.362,0,9.957,1.448,14.441,4.543c1.032,0.728,1.766,1.732,0.135,4.125L52.516,24.331z"/>
	<path fill="#272727" d="M122.836,38.198l2.03,0.396c3.074,0.601,3.498,2.054,3.498,3.538v29.127c0,6.94-5.356,12.377-12.197,12.377
		c-6.865,0-11.848-5.031-11.848-11.965V42.132c0-1.488,0.417-2.947,3.442-3.538l2.03-0.396V32.56H83.061v5.638l2.029,0.396
		c3.025,0.591,3.442,2.049,3.442,3.538v30.951c0,13.849,10.484,24.695,23.868,24.695c6.483,0,12.429-2.412,16.859-6.67l0.297,5.555
		h20.129v-5.662l-2.057-0.377c-3.062-0.562-3.475-2.103-3.475-3.535V42.132c0-1.482,0.424-2.937,3.501-3.538l2.03-0.396V32.56
		h-26.85V38.198z"/>
	<path fill="#272727" d="M161.714,38.198l2.03,0.396c3.077,0.601,3.501,2.056,3.501,3.538v44.957c0,1.433-0.411,2.974-3.474,3.535
		l-2.058,0.377v5.662h26.676v-5.662l-2.057-0.377c-3.062-0.562-3.475-2.103-3.475-3.535V42.132c0-1.482,0.425-2.937,3.501-3.538
		l2.03-0.396V32.56h-26.676V38.198z"/>
	<path fill="#272727" d="M175.111,28.579c5.275,0,9.568-4.294,9.568-9.572c0-5.212-4.293-9.454-9.568-9.454
		c-5.245,0-9.514,4.242-9.514,9.454C165.598,24.284,169.866,28.579,175.111,28.579z"/>
	<path fill="#272727" d="M223.971,14.613h-12.865l-2.589,17.947h-12.811v9.847h12.475v37.032c0,16.008,9.425,18.398,15.045,18.398
		c2.284,0,4.369-0.408,6.056-1.16c0.245-0.09,0.5-0.195,0.758-0.305c0.24-0.101,0.591-0.248,0.86-0.336
		c0.093,0.219,0.218,0.588,0.336,1.186l0.395,2.03h5.645v-24.44h-5.637l-0.402,2.025c-0.849,4.301-2.845,6.522-3.639,6.758
		c-0.706,0.24-1.312,0.363-1.805,0.363c-0.497,0-1.821,0-1.821-4.283V42.407h13.304V32.56h-13.304V14.613z"/>
	<path fill="#272727" d="M273.635,44.228c4.707,0,11.923,2.944,16.605,8.57l2.301,2.763l9.904-17.102l-4.729-2.944l-1.41,1.46
		c-0.579,0.601-1.432,1.315-2.204,1.315c-0.626,0-1.31-0.448-1.913-0.898c-4.984-3.912-11.616-6.067-18.673-6.067
		c-11.003,0-22.105,5.962-22.105,19.281c0,13.415,11.604,17.338,18.538,19.681l1.628,0.547c7.86,2.631,11.963,4.164,11.963,7.605
		c0,5.382-4.953,5.963-7.081,5.963c-5.51,0-12.715-3.179-18.803-8.295l-2.469-2.072l-4.148,8.551l-5.706,8.297l4.507,3.207
		l1.498-1.398c1.964-1.828,3.639-1.542,5.276-0.593c4.827,2.438,12.124,5.679,19.718,5.679h0.01
		c13.504,0,22.576-8.033,22.576-19.988c0-13.693-13.87-17.865-19.723-19.623l-0.907-0.3c-7.339-2.435-11.793-4.185-11.793-7.966
		C266.495,45.981,270.082,44.228,273.635,44.228z M276.332,95.265L276.332,95.265L276.332,95.265L276.332,95.265z"/>
	<linearGradient id="SVGID_1_" gradientUnits="userSpaceOnUse" x1="315.7861" y1="48.959" x2="345.3252" y2="48.959">
		<stop  offset="0" style="stop-color:#F2E35A"/>
		<stop  offset="1" style="stop-color:#CDA61F"/>
	</linearGradient>
	<path fill="url(#SVGID_1_)" d="M315.786,7.965l3.089,0.565c2.442,0.446,2.442,1.43,2.442,2.297v76.262c0,0.867,0,1.852-2.444,2.299
		l-3.087,0.566v7.964h29.539v-7.964l-3.087-0.566c-2.439-0.447-2.439-1.432-2.439-2.299V10.827c0-0.868,0-1.851,2.438-2.297
		l3.089-0.565V0h-29.539V7.965z"/>
	<linearGradient id="SVGID_2_" gradientUnits="userSpaceOnUse" x1="355.2109" y1="64.0225" x2="426" y2="64.0225">
		<stop  offset="0" style="stop-color:#F2E35A"/>
		<stop  offset="1" style="stop-color:#CDA61F"/>
	</linearGradient>
	<path fill="url(#SVGID_2_)" d="M422.913,89.386c-2.444-0.447-2.444-1.432-2.444-2.3V58.255c0-14-7.934-28.127-25.656-28.127
		c-6.144,0-11.55,1.7-15.888,4.912v-3.735h-23.714v7.928l3.045,0.593c2.486,0.485,2.486,1.453,2.486,2.306v44.957
		c0,0.867,0,1.852-2.444,2.299l-3.087,0.566v7.964h29.246v-7.964l-3.088-0.566c-2.444-0.447-2.444-1.432-2.444-2.299V60.786
		c0-9.298,4.306-14.417,12.122-14.417c7.564,0,11.239,4.177,11.239,12.769v27.948c0,0.868,0,1.853-2.444,2.3l-3.087,0.566v7.963H426
		v-7.963L422.913,89.386z"/>
</g>
</svg>
