<?xml version="1.0" encoding="utf-8"?>
<!-- Generator: Adobe Illustrator 16.0.0, SVG Export Plug-In . SVG Version: 6.00 Build 0)  -->
<!DOCTYPE svg PUBLIC "-//W3C//DTD SVG 1.1//EN" "http://www.w3.org/Graphics/SVG/1.1/DTD/svg11.dtd">
<svg version="1.1" id="Шар_1" xmlns="http://www.w3.org/2000/svg" xmlns:xlink="http://www.w3.org/1999/xlink" x="0px" y="0px"
	 width="63px" height="63px" viewBox="0 0 63 63" enable-background="new 0 0 63 63" xml:space="preserve">
<linearGradient id="SVGID_1_" gradientUnits="userSpaceOnUse" x1="0" y1="31.5005" x2="63" y2="31.5005">
	<stop  offset="0" style="stop-color:#F2E35A"/>
	<stop  offset="1" style="stop-color:#CDA61F"/>
</linearGradient>
<path fill="url(#SVGID_1_)" d="M31.5,0C14.131,0,0,14.131,0,31.5c0,17.37,14.131,31.501,31.5,31.501S63,48.87,63,31.5
	C63,14.131,48.869,0,31.5,0z"/>
<path fill="#272727" d="M33.761,29.337l-0.221-0.092c-3.271-1.354-5.274-2.294-5.274-4.479c0-2.132,1.889-3.086,3.761-3.086
	c1.501,0,2.786,0.405,4.041,1.271c0.289,0.204,0.494,0.485,0.038,1.155l-0.342,0.501l1.152,1.061l5.002-4.918l-1.097-1.093
	l-0.474,0.297c-0.612,0.385-1.05,0.423-1.586,0.026c-2.007-1.453-4.183-2.16-6.652-2.16c-4.12,0-8.277,2.224-8.277,7.191
	c0,4.998,4.467,6.802,7.424,7.996l0.262,0.104c3.475,1.395,5.44,2.297,5.44,4.629c0,2.565-2.189,3.48-4.238,3.48
	c-1.873,0-3.886-0.746-5.659-2.092c-0.296-0.23-0.506-0.543-0.042-1.253l0.324-0.498l-1.148-1.056l-5.127,5.127l1.136,1.045
	l0.456-0.293c0.596-0.384,1.012-0.421,1.521-0.008c1.715,1.361,4.537,2.984,8.24,2.986c4.312,0,8.952-2.391,8.952-7.637
	C41.373,32.496,36.974,30.67,33.761,29.337z"/>
</svg>
